# xmcd CD database file
#
# Track frame offsets:
#	150
#	13007
#	26149
#	40183
#	53867
#	69577
#	84199
#	96306
#	118557
#	140565
#	162559
#	176852
#
# Disc length: 2529 seconds
#
# Revision: 0
# Processed by: cddbd v1.4PL0 Copyright (c) Steve Scherf et al.
# Submitted via: CDex 1.50beta10
#
DISCID=a409df0c
DTITLE=Phil Coulter 3 - Dreaming In The Dawn
DYEAR=2001
DGENRE=New Age
TTITLE0=Morning Has Broken
TTITLE1=Amazing Grace
TTITLE2=Nearer My God To Hee
TTITLE3=The Bells Of The Angelus
TTITLE4=In Loving Memory
TTITLE5=Bless This House
TTITLE6=One Day At A Time
TTITLE7=The Bonny Boy - Mid Term Break
TTITLE8=Planxty Irwin
TTITLE9=Tears On The Heather
TTITLE10=The Wind In The Willows
TTITLE11=The Town I Love So Well
EXTD=YEAR: 2001
EXTT0=
EXTT1=
EXTT2=
EXTT3=
EXTT4=
EXTT5=
EXTT6=
EXTT7=
EXTT8=
EXTT9=
EXTT10=
EXTT11=
PLAYORDER=
